<svg id="Warstwa_1" data-name="Warstwa 1" xmlns="http://www.w3.org/2000/svg" viewBox="0 0 605 64.5"><defs><style>.cls-1{fill:#111;}.cls-2{fill:#222;}</style></defs><title>Obszar roboczy 1</title><rect class="cls-1" width="605" height="64.5"/><polyline class="cls-2" points="24.5 64.5 0 64.5 0 7.64"/><polyline class="cls-2" points="605 13.09 605 64.5 582.85 64.5"/><polygon class="cls-2" points="474.12 0 461.85 32.69 449.59 0 426.93 0 454.72 64.5 468.99 64.5 496.78 0 474.12 0"/><polygon class="cls-2" points="605 13.09 582.85 64.5 605 64.5 605 13.09"/><polygon class="cls-2" points="579.12 0 566.85 32.69 554.59 0 531.93 0 559.72 64.5 573.99 64.5 601.78 0 579.12 0"/><polygon class="cls-2" points="505.64 0 477.85 64.5 507.08 64.5 513.9 46.32 520.72 64.5 549.96 64.5 522.17 0 505.64 0"/><polygon class="cls-2" points="400.64 0 372.85 64.5 402.08 64.5 408.9 46.32 415.72 64.5 444.95 64.5 417.17 0 400.64 0"/><polygon class="cls-2" points="369.12 0 356.85 32.69 344.59 0 321.93 0 349.72 64.5 363.99 64.5 391.78 0 369.12 0"/><polygon class="cls-2" points="190.64 0 162.85 64.5 192.08 64.5 198.9 46.32 205.72 64.5 234.96 64.5 207.17 0 190.64 0"/><polygon class="cls-2" points="85.64 0 57.85 64.5 87.08 64.5 93.9 46.32 100.72 64.5 129.96 64.5 102.17 0 85.64 0"/><polygon class="cls-2" points="159.12 0 146.85 32.69 134.59 0 111.93 0 139.72 64.5 153.99 64.5 181.78 0 159.12 0"/><polygon class="cls-2" points="53.68 0 41.41 32.69 29.15 0 6.49 0 34.28 64.5 48.55 64.5 76.33 0 53.68 0"/><polygon class="cls-2" points="0 64.5 24.5 64.5 0 7.64 0 64.5"/><polygon class="cls-2" points="295.64 0 267.85 64.5 297.08 64.5 303.9 46.32 310.72 64.5 339.95 64.5 312.17 0 295.64 0"/><polygon class="cls-2" points="264.12 0 251.85 32.69 239.59 0 216.93 0 244.72 64.5 258.99 64.5 286.78 0 264.12 0"/></svg>